999
dxfrw 0.5.11
0
SECTION
2
HEADER
9
$ACADVER
1
AC1021
9
$HANDSEED
5
20000
9
$DWGCODEPAGE
3
ANSI_1252
9
$INSBASE
10
0
20
0
30
0
9
$EXTMIN
10
-20
20
-85
30
0
9
$EXTMAX
10
46.0000000001
20
85
30
0
9
$LIMMIN
10
0
20
0
9
$LIMMAX
10
420
20
297
9
$ORTHOMODE
70
0
9
$LTSCALE
40
1
9
$TEXTSTYLE
7
STANDARD
9
$CLAYER
8
servos_mounting_holes
9
$DIMASZ
40
2.5
9
$DIMLFAC
40
1
9
$DIMSCALE
40
1
9
$DIMEXO
40
0.625
9
$DIMEXE
40
1.25
9
$DIMTXT
40
2.5
9
$DIMTSZ
40
0
9
$DIMAUNIT
70
0
9
$DIMADEC
70
0
9
$DIMLUNIT
70
2
9
$DIMSTYLE
2
Standard
9
$DIMGAP
40
0.625
9
$DIMTIH
70
0
9
$LUNITS
70
2
9
$LUPREC
70
4
9
$AUNITS
70
0
9
$AUPREC
70
2
9
$SPLINESEGS
70
8
9
$GRIDMODE
70
1
9
$SNAPSTYLE
70
0
9
$PINSBASE
10
0
20
0
30
0
9
$PLIMMIN
10
0
20
0
9
$PLIMMAX
10
210
20
297
9
$INSUNITS
70
4
9
$PSVPSCALE
40
1
0
ENDSEC
0
SECTION
2
CLASSES
0
ENDSEC
0
SECTION
2
TABLES
0
TABLE
2
VPORT
5
8
330
0
100
AcDbSymbolTable
70
1
0
VPORT
5
31
330
2
100
AcDbSymbolTableRecord
100
AcDbViewportTableRecord
2
*ACTIVE
70
0
10
0
20
0
11
1
21
1
12
79.191458493
22
66.1800959273
13
0
23
0
14
10
24
10
15
10
25
10
16
0
26
0
36
1
17
0
27
0
37
0
40
169.054106428
41
1.7342192691
42
50
43
0
44
0
50
0
51
0
71
0
72
100
73
1
74
3
75
0
76
1
77
0
78
0
281
0
65
1
110
0
120
0
130
0
111
1
121
0
131
0
112
0
122
1
132
0
79
0
146
0
348
10020
60
7
61
5
292
1
282
1
141
0
142
0
63
250
421
3358443
0
ENDTAB
0
TABLE
2
LTYPE
5
5
330
0
100
AcDbSymbolTable
70
4
0
LTYPE
5
14
330
5
100
AcDbSymbolTableRecord
100
AcDbLinetypeTableRecord
2
ByBlock
70
0
3

72
65
73
0
40
0
0
LTYPE
5
15
330
5
100
AcDbSymbolTableRecord
100
AcDbLinetypeTableRecord
2
ByLayer
70
0
3

72
65
73
0
40
0
0
LTYPE
5
16
330
5
100
AcDbSymbolTableRecord
100
AcDbLinetypeTableRecord
2
Continuous
70
0
3
Solid line
72
65
73
0
40
0
0
LTYPE
5
32
330
5
100
AcDbSymbolTableRecord
100
AcDbLinetypeTableRecord
2
DOT
70
0
3
Dot . . . . . . . . . . . . . . . . . . . . . .
72
65
73
2
40
6.35
49
0
74
0
49
-6.35
74
0
0
LTYPE
5
33
330
5
100
AcDbSymbolTableRecord
100
AcDbLinetypeTableRecord
2
DOT2
70
0
3
Dot (.5x) .....................................
72
65
73
2
40
3.175
49
0
74
0
49
-3.175
74
0
0
LTYPE
5
34
330
5
100
AcDbSymbolTableRecord
100
AcDbLinetypeTableRecord
2
DOTX2
70
0
3
Dot (2x) .  .  .  .  .  .  .  .  .  .  .  .  .
72
65
73
2
40
12.7
49
0
74
0
49
-12.7
74
0
0
LTYPE
5
35
330
5
100
AcDbSymbolTableRecord
100
AcDbLinetypeTableRecord
2
DASHED
70
0
3
Dot . . . . . . . . . . . . . . . . . . . . . .
72
65
73
2
40
19.05
49
12.7
74
0
49
-6.35
74
0
0
LTYPE
5
36
330
5
100
AcDbSymbolTableRecord
100
AcDbLinetypeTableRecord
2
DASHED2
70
0
3
Dashed (.5x) _ _ _ _ _ _ _ _ _ _ _ _ _ _ _ _ _
72
65
73
2
40
9.525
49
6.35
74
0
49
-3.175
74
0
0
LTYPE
5
37
330
5
100
AcDbSymbolTableRecord
100
AcDbLinetypeTableRecord
2
DASHEDX2
70
0
3
Dashed (2x) ____  ____  ____  ____  ____  ___
72
65
73
2
40
38.1
49
25.4
74
0
49
-12.7
74
0
0
LTYPE
5
38
330
5
100
AcDbSymbolTableRecord
100
AcDbLinetypeTableRecord
2
DASHDOT
70
0
3
Dash dot __ . __ . __ . __ . __ . __ . __ . __
72
65
73
4
40
25.4
49
12.7
74
0
49
-6.35
74
0
49
0
74
0
49
-6.35
74
0
0
LTYPE
5
39
330
5
100
AcDbSymbolTableRecord
100
AcDbLinetypeTableRecord
2
DASHDOT2
70
0
3
Dash dot (.5x) _._._._._._._._._._._._._._._.
72
65
73
4
40
12.7
49
6.35
74
0
49
-3.175
74
0
49
0
74
0
49
-3.175
74
0
0
LTYPE
5
3A
330
5
100
AcDbSymbolTableRecord
100
AcDbLinetypeTableRecord
2
DASHDOTX2
70
0
3
Dash dot (2x) ____  .  ____  .  ____  .  ___
72
65
73
4
40
50.8
49
25.4
74
0
49
-12.7
74
0
49
0
74
0
49
-12.7
74
0
0
LTYPE
5
3B
330
5
100
AcDbSymbolTableRecord
100
AcDbLinetypeTableRecord
2
DIVIDE
70
0
3
Divide ____ . . ____ . . ____ . . ____ . . ____
72
65
73
6
40
31.75
49
12.7
74
0
49
-6.35
74
0
49
0
74
0
49
-6.35
74
0
49
0
74
0
49
-6.35
74
0
0
LTYPE
5
3C
330
5
100
AcDbSymbolTableRecord
100
AcDbLinetypeTableRecord
2
DIVIDE2
70
0
3
Divide (.5x) __..__..__..__..__..__..__..__.._
72
65
73
6
40
15.875
49
6.35
74
0
49
-3.175
74
0
49
0
74
0
49
-3.175
74
0
49
0
74
0
49
-3.175
74
0
0
LTYPE
5
3D
330
5
100
AcDbSymbolTableRecord
100
AcDbLinetypeTableRecord
2
DIVIDEX2
70
0
3
Divide (2x) ________  .  .  ________  .  .  _
72
65
73
6
40
63.5
49
25.4
74
0
49
-12.7
74
0
49
0
74
0
49
-12.7
74
0
49
0
74
0
49
-12.7
74
0
0
LTYPE
5
3E
330
5
100
AcDbSymbolTableRecord
100
AcDbLinetypeTableRecord
2
BORDER
70
0
3
Border __ __ . __ __ . __ __ . __ __ . __ __ .
72
65
73
6
40
44.45
49
12.7
74
0
49
-6.35
74
0
49
12.7
74
0
49
-6.35
74
0
49
0
74
0
49
-6.35
74
0
0
LTYPE
5
3F
330
5
100
AcDbSymbolTableRecord
100
AcDbLinetypeTableRecord
2
BORDER2
70
0
3
Border (.5x) __.__.__.__.__.__.__.__.__.__.__.
72
65
73
6
40
22.225
49
6.35
74
0
49
-3.175
74
0
49
6.35
74
0
49
-3.175
74
0
49
0
74
0
49
-3.175
74
0
0
LTYPE
5
40
330
5
100
AcDbSymbolTableRecord
100
AcDbLinetypeTableRecord
2
BORDERX2
70
0
3
Border (2x) ____  ____  .  ____  ____  .  ___
72
65
73
6
40
88.9
49
25.4
74
0
49
-12.7
74
0
49
25.4
74
0
49
-12.7
74
0
49
0
74
0
49
-12.7
74
0
0
LTYPE
5
41
330
5
100
AcDbSymbolTableRecord
100
AcDbLinetypeTableRecord
2
CENTER
70
0
3
Center ____ _ ____ _ ____ _ ____ _ ____ _ ____
72
65
73
4
40
50.8
49
31.75
74
0
49
-6.35
74
0
49
6.35
74
0
49
-6.35
74
0
0
LTYPE
5
42
330
5
100
AcDbSymbolTableRecord
100
AcDbLinetypeTableRecord
2
CENTER2
70
0
3
Center (.5x) ___ _ ___ _ ___ _ ___ _ ___ _ ___
72
65
73
4
40
28.575
49
19.05
74
0
49
-3.175
74
0
49
3.175
74
0
49
-3.175
74
0
0
LTYPE
5
43
330
5
100
AcDbSymbolTableRecord
100
AcDbLinetypeTableRecord
2
CENTERX2
70
0
3
Center (2x) ________  __  ________  __  _____
72
65
73
4
40
101.6
49
63.5
74
0
49
-12.7
74
0
49
12.7
74
0
49
-12.7
74
0
0
ENDTAB
0
TABLE
2
LAYER
5
2
330
0
100
AcDbSymbolTable
70
1
0
LAYER
5
10
330
2
100
AcDbSymbolTableRecord
100
AcDbLayerTableRecord
2
0
70
0
62
1
6
CONTINUOUS
370
0
390
F
0
LAYER
5
44
330
2
100
AcDbSymbolTableRecord
100
AcDbLayerTableRecord
2
noname
70
0
62
4
6
CONTINUOUS
370
0
390
F
0
LAYER
5
45
330
2
100
AcDbSymbolTableRecord
100
AcDbLayerTableRecord
2
noname2
70
0
62
6
6
CONTINUOUS
370
0
390
F
0
LAYER
5
46
330
2
100
AcDbSymbolTableRecord
100
AcDbLayerTableRecord
2
noname3
70
0
62
3
6
CONTINUOUS
370
0
390
F
0
LAYER
5
47
330
2
100
AcDbSymbolTableRecord
100
AcDbLayerTableRecord
2
servos_mounting_holes
70
0
62
5
6
CONTINUOUS
370
0
390
F
0
ENDTAB
0
TABLE
2
STYLE
5
3
330
0
100
AcDbSymbolTable
70
3
0
STYLE
5
48
330
2
100
AcDbSymbolTableRecord
100
AcDbTextStyleTableRecord
2
Standard
70
0
40
0
41
1
50
0
71
0
42
1
3
txt
4

0
ENDTAB
0
TABLE
2
VIEW
5
6
330
0
100
AcDbSymbolTable
70
0
0
ENDTAB
0
TABLE
2
UCS
5
7
330
0
100
AcDbSymbolTable
70
0
0
ENDTAB
0
TABLE
2
APPID
5
9
330
0
100
AcDbSymbolTable
70
1
0
APPID
5
12
330
9
100
AcDbSymbolTableRecord
100
AcDbRegAppTableRecord
2
ACAD
70
0
0
ENDTAB
0
TABLE
2
DIMSTYLE
5
A
330
0
100
AcDbSymbolTable
70
1
100
AcDbDimStyleTable
71
1
0
DIMSTYLE
105
49
330
A
100
AcDbSymbolTableRecord
100
AcDbDimStyleTableRecord
2
Standard
70
0
40
1
41
2.5
42
0.625
43
0.38
44
1.25
45
0
46
0
47
0
48
0
140
2.5
141
0.09
142
0
143
25.4
144
1
145
0
146
1
147
0.625
148
0
71
0
72
0
73
0
74
1
75
0
76
0
77
0
78
0
79
0
170
0
171
2
172
0
173
0
174
0
175
0
176
0
177
0
178
0
179
0
271
4
272
4
273
2
274
2
275
0
276
0
277
2
278
46
279
0
280
0
281
0
282
0
283
1
284
0
285
0
286
0
288
0
289
3
340
Standard
341

371
-2
372
-2
0
ENDTAB
0
TABLE
2
BLOCK_RECORD
5
1
330
0
100
AcDbSymbolTable
70
2
0
BLOCK_RECORD
5
1F
330
1
100
AcDbSymbolTableRecord
100
AcDbBlockTableRecord
2
*Model_Space
70
0
280
1
281
0
0
BLOCK_RECORD
5
1E
330
1
100
AcDbSymbolTableRecord
100
AcDbBlockTableRecord
2
*Paper_Space
70
0
280
1
281
0
0
ENDTAB
0
ENDSEC
0
SECTION
2
BLOCKS
0
BLOCK
5
20
330
1F
100
AcDbEntity
8
0
100
AcDbBlockBegin
2
*Model_Space
70
0
10
0
20
0
30
0
3
*Model_Space
1

0
ENDBLK
5
21
330
1F
100
AcDbEntity
8
0
100
AcDbBlockEnd
0
BLOCK
5
1C
330
1B
100
AcDbEntity
8
0
100
AcDbBlockBegin
2
*Paper_Space
70
0
10
0
20
0
30
0
3
*Paper_Space
1

0
ENDBLK
5
1D
330
1F
100
AcDbEntity
8
0
100
AcDbBlockEnd
0
ENDSEC
0
SECTION
2
ENTITIES
0
LINE
5
4A
100
AcDbEntity
8
noname
6
ByLayer
62
256
370
-1
100
AcDbLine
10
20
20
0
11
36
21
0
0
LINE
5
4B
100
AcDbEntity
8
noname
6
ByLayer
62
256
370
-1
100
AcDbLine
10
36
20
0
11
36
21
5
0
LINE
5
4C
100
AcDbEntity
8
noname
6
ByLayer
62
256
370
-1
100
AcDbLine
10
36
20
5
11
40
21
5
0
LINE
5
4D
100
AcDbEntity
8
noname
6
ByLayer
62
256
370
-1
100
AcDbLine
10
40
20
5
11
40
21
25
0
LINE
5
4E
100
AcDbEntity
8
noname
6
ByLayer
62
256
370
-1
100
AcDbLine
10
40
20
25
11
36
21
25
0
LINE
5
4F
100
AcDbEntity
8
noname
6
ByLayer
62
256
370
-1
100
AcDbLine
10
36
20
25
11
36
21
30
0
LINE
5
50
100
AcDbEntity
8
noname
6
ByLayer
62
256
370
-1
100
AcDbLine
10
20
20
85
11
24
21
85
0
LINE
5
51
100
AcDbEntity
8
noname
6
ByLayer
62
256
370
-1
100
AcDbLine
10
24
20
85
11
24
21
70
0
LINE
5
52
100
AcDbEntity
8
noname
6
ByLayer
62
256
370
-1
100
AcDbLine
10
24
20
70
11
36
21
30
0
LINE
5
53
100
AcDbEntity
8
noname
6
ByLayer
62
256
370
-1
100
AcDbLine
10
20
20
0
11
4
21
0
0
LINE
5
54
100
AcDbEntity
8
noname
6
ByLayer
62
256
370
-1
100
AcDbLine
10
4
20
0
11
4
21
5
0
LINE
5
55
100
AcDbEntity
8
noname
6
ByLayer
62
256
370
-1
100
AcDbLine
10
4
20
5
11
-3.5527136788e-15
21
5
0
LINE
5
56
100
AcDbEntity
8
noname
6
ByLayer
62
256
370
-1
100
AcDbLine
10
-3.5527136788e-15
20
5
11
-3.5527136788e-15
21
25
0
LINE
5
57
100
AcDbEntity
8
noname
6
ByLayer
62
256
370
-1
100
AcDbLine
10
-3.5527136788e-15
20
25
11
4
21
25
0
LINE
5
58
100
AcDbEntity
8
noname
6
ByLayer
62
256
370
-1
100
AcDbLine
10
4
20
25
11
4
21
30
0
LINE
5
59
100
AcDbEntity
8
noname
6
ByLayer
62
256
370
-1
100
AcDbLine
10
20
20
85
11
16
21
85
0
LINE
5
5A
100
AcDbEntity
8
noname
6
ByLayer
62
256
370
-1
100
AcDbLine
10
16
20
85
11
16
21
70
0
LINE
5
5B
100
AcDbEntity
8
noname
6
ByLayer
62
256
370
-1
100
AcDbLine
10
16
20
70
11
4
21
30
0
ARC
5
5C
100
AcDbEntity
8
noname2
6
ByLayer
62
256
370
-1
100
AcDbCircle
10
36
20
5
40
7
100
AcDbArc
50
115.376933525
51
163.398450401
0
ARC
5
5D
100
AcDbEntity
8
noname2
6
ByLayer
62
256
370
-1
100
AcDbCircle
10
36
20
25
40
7
100
AcDbArc
50
159.331035703
51
244.623066475
0
LINE
5
5E
100
AcDbEntity
8
noname2
6
ByLayer
62
256
370
-1
100
AcDbLine
10
33
20
11.3245553203
11
33
21
18.6754446797
0
LINE
5
5F
100
AcDbEntity
8
noname2
6
ByLayer
62
256
370
-1
100
AcDbLine
10
20
20
7
11
29.2917960675
21
7
0
ARC
5
60
100
AcDbEntity
8
noname2
6
ByLayer
62
256
370
-1
100
AcDbCircle
10
4
20
5
40
7
100
AcDbArc
50
16.601549599
51
64.6230664748
0
ARC
5
61
100
AcDbEntity
8
noname2
6
ByLayer
62
256
370
-1
100
AcDbCircle
10
4
20
25
40
7
100
AcDbArc
50
295.376933525
51
20.6689642974
0
LINE
5
62
100
AcDbEntity
8
noname2
6
ByLayer
62
256
370
-1
100
AcDbLine
10
7
20
11.3245553203
11
7
21
18.6754446797
0
LINE
5
63
100
AcDbEntity
8
noname2
6
ByLayer
62
256
370
-1
100
AcDbLine
10
20
20
7
11
10.7082039325
21
7
0
LINE
5
64
100
AcDbEntity
8
noname2
6
ByLayer
62
256
370
-1
100
AcDbLine
10
20
20
58.9726181459
11
29.450552465
21
27.4707765958
0
LINE
5
65
100
AcDbEntity
8
noname2
6
ByLayer
62
256
370
-1
100
AcDbLine
10
20
20
58.9726181459
11
10.549447535
21
27.4707765958
0
CIRCLE
5
66
100
AcDbEntity
8
servos_mounting_holes
6
ByLayer
62
256
370
-1
100
AcDbCircle
10
27.0000000001
20
26.9999999999
40
1.1
0
CIRCLE
5
67
100
AcDbEntity
8
servos_mounting_holes
6
ByLayer
62
256
370
-1
100
AcDbCircle
10
32.5000000001
20
21.4999999999
40
1.1
0
CIRCLE
5
68
100
AcDbEntity
8
servos_mounting_holes
6
ByLayer
62
256
370
-1
100
AcDbCircle
10
11.0000000001
20
26.9999999999
40
1.1
0
CIRCLE
5
69
100
AcDbEntity
8
servos_mounting_holes
6
ByLayer
62
256
370
-1
100
AcDbCircle
10
5.5000000001
20
21.4999999999
40
1.1
0
CIRCLE
5
6A
100
AcDbEntity
8
servos_mounting_holes
6
ByLayer
62
256
370
-1
100
AcDbCircle
10
5.5000000001
20
13.4999999999
40
1.1
0
CIRCLE
5
6B
100
AcDbEntity
8
servos_mounting_holes
6
ByLayer
62
256
370
-1
100
AcDbCircle
10
5.5000000001
20
5.4999999999
40
1.1
0
LINE
5
6C
100
AcDbEntity
8
noname3
6
ByLayer
62
256
370
-1
100
AcDbLine
10
9.99946792035e-11
20
0.9999999999
11
1
21
3.5527136788e-15
0
LINE
5
6D
100
AcDbEntity
8
noname3
6
ByLayer
62
256
370
-1
100
AcDbLine
10
9.99946792035e-11
20
0.9999999999
11
9.99946792035e-11
21
28.9734115148
0
LINE
5
6E
100
AcDbEntity
8
noname3
6
ByLayer
62
256
370
-1
100
AcDbLine
10
9
20
-2.0783375021e-12
11
9.0000000001
21
23.9999999999
0
LINE
5
6F
100
AcDbEntity
8
noname3
6
ByLayer
62
256
370
-1
100
AcDbLine
10
9
20
-2.0783375021e-12
11
1
21
3.5527136788e-15
0
LINE
5
70
100
AcDbEntity
8
noname3
6
ByLayer
62
256
370
-1
100
AcDbLine
10
9.0000000001
20
23.9999999999
11
19.0000000001
21
23.9999999999
0
LINE
5
71
100
AcDbEntity
8
noname3
6
ByLayer
62
256
370
-1
100
AcDbLine
10
29.0000000001
20
23.9999999999
11
19.0000000001
21
23.9999999999
0
LINE
5
72
100
AcDbEntity
8
noname3
6
ByLayer
62
256
370
-1
100
AcDbLine
10
29.0000000001
20
16
11
29.0000000001
21
23.9999999999
0
LINE
5
73
100
AcDbEntity
8
noname3
6
ByLayer
62
256
370
-1
100
AcDbLine
10
29.0000000002
20
16
11
34.6111111113
21
16
0
LINE
5
74
100
AcDbEntity
8
noname3
6
ByLayer
62
256
370
-1
100
AcDbLine
10
26.5902413618
20
60.3169738455
11
36.6718618166
21
57.9651664009
0
LINE
5
75
100
AcDbEntity
8
noname3
6
ByLayer
62
256
370
-1
100
AcDbLine
10
41.6509501469
20
53.5656100613
11
45.5693296921
21
42.9174175059
0
LINE
5
76
100
AcDbEntity
8
noname3
6
ByLayer
62
256
370
-1
100
AcDbLine
10
19.197974415
20
57.4161842538
11
9.99946792035e-11
21
28.9734115148
0
LINE
5
77
100
AcDbEntity
8
noname3
6
ByLayer
62
256
370
-1
100
AcDbLine
10
45.2650738384
20
37.3776851853
11
34.6111111113
21
16
0
ARC
5
78
100
AcDbEntity
8
noname3
6
ByLayer
62
256
370
-1
100
AcDbCircle
10
35.0816204549
20
51.1481925553
40
7
100
AcDbArc
50
20.202874964
51
76.8690562887
0
ARC
5
79
100
AcDbEntity
8
noname3
6
ByLayer
62
256
370
-1
100
AcDbCircle
10
39.0000000001
20
40.4999999999
40
7
100
AcDbArc
50
333.509783188
51
380.202879123
0
ARC
5
7A
100
AcDbEntity
8
noname3
6
ByLayer
62
256
370
-1
100
AcDbCircle
10
25.0000000001
20
53.4999999999
40
7
100
AcDbArc
50
76.8690571361
51
145.98189829
0
CIRCLE
5
7B
100
AcDbEntity
8
servos_mounting_holes
6
ByLayer
62
256
370
-1
100
AcDbCircle
10
39.0000000001
20
40.4999999999
40
1.6
0
CIRCLE
5
7C
100
AcDbEntity
8
servos_mounting_holes
6
ByLayer
62
256
370
-1
100
AcDbCircle
10
25.0000000001
20
53.4999999999
40
1.6
0
LINE
5
7D
100
AcDbEntity
8
0
6
ByLayer
62
256
370
-1
100
AcDbLine
10
19.9669464985
20
37.1286836056
11
37.491229975
21
46.7671216861
0
LINE
5
7E
100
AcDbEntity
8
0
6
ByLayer
62
256
370
-1
100
AcDbLine
10
17.5573369783
20
41.5097544747
11
35.0816204549
21
51.1481925553
0
LINE
5
7F
100
AcDbEntity
8
0
6
ByLayer
62
256
370
-1
100
AcDbLine
10
17.5573369783
20
41.5097544747
11
19.9669464985
21
37.1286836056
0
LINE
5
80
100
AcDbEntity
8
0
6
ByLayer
62
256
370
-1
100
AcDbLine
10
35.0816204549
20
51.1481925553
11
37.491229975
21
46.7671216861
0
ENDSEC
0
SECTION
2
OBJECTS
0
DICTIONARY
5
C
330
0
100
AcDbDictionary
281
1
3
ACAD_GROUP
350
D
0
DICTIONARY
5
D
330
C
100
AcDbDictionary
281
1
0
ENDSEC
0
EOF
